<?xml version="1.0" encoding="utf-8"?>
<!-- Generator: Adobe Illustrator 24.0.1, SVG Export Plug-In . SVG Version: 6.00 Build 0)  -->
<svg version="1.1" id="圖層_1" xmlns="http://www.w3.org/2000/svg" xmlns:xlink="http://www.w3.org/1999/xlink" x="0px" y="0px"
	 viewBox="0 0 100 100" style="enable-background:new 0 0 100 100;" xml:space="preserve">
<style type="text/css">
	.st0{fill-rule:evenodd;clip-rule:evenodd;}
</style>
<path class="st0" d="M85.5,15.5H69.3v16.3h16.3V15.5z M30.7,15.5H14.5v16.3h16.3V15.5z M92.8,1.1c4,0,7.2,3.2,7.2,7.2V39
	c0,4-3.2,7.2-7.2,7.2H62c-4,0-7.2-3.2-7.2-7.2V8.3c0-4,3.2-7.2,7.2-7.2H92.8z M38,1.1c4,0,7.2,3.2,7.2,7.2V39c0,4-3.2,7.2-7.2,7.2
	H7.2C3.2,46.2,0,43,0,39V8.3c0-4,3.2-7.2,7.2-7.2H38z M85.5,68.2H69.3v16.3h16.3V68.2z M30.7,68.2H14.5v16.3h16.3V68.2z M92.8,53.8
	c4,0,7.2,3.2,7.2,7.2v30.7c0,4-3.2,7.2-7.2,7.2H62c-4,0-7.2-3.2-7.2-7.2V61c0-4,3.2-7.2,7.2-7.2H92.8z M38,53.8c4,0,7.2,3.2,7.2,7.2
	v30.7c0,4-3.2,7.2-7.2,7.2H7.2c-4,0-7.2-3.2-7.2-7.2V61c0-4,3.2-7.2,7.2-7.2H38z"/>
</svg>
